<mxfile host="Electron" modified="2023-08-16T03:54:14.867Z" agent="Mozilla/5.0 (Windows NT 10.0; Win64; x64) AppleWebKit/537.36 (KHTML, like Gecko) draw.io/21.6.5 Chrome/114.0.5735.243 Electron/25.3.1 Safari/537.36" etag="kAJEhv91f46IojXPoJfW" version="21.6.5" type="device">
  <diagram name="Page-1" id="hmEKueG6zGpYSEXip0dn">
    <mxGraphModel dx="1596" dy="825" grid="1" gridSize="10" guides="1" tooltips="1" connect="1" arrows="1" fold="1" page="1" pageScale="1" pageWidth="850" pageHeight="1100" math="0" shadow="0">
      <root>
        <mxCell id="0" />
        <mxCell id="1" parent="0" />
        <mxCell id="_Fy6bXsCZvbTVDBgMAH1-9" value="EB_Computer Subsystems" style="shape=folder;fontStyle=1;tabWidth=110;tabHeight=30;tabPosition=left;html=1;boundedLbl=1;labelInHeader=1;container=1;collapsible=0;whiteSpace=wrap;movable=0;resizable=0;rotatable=0;deletable=0;editable=0;locked=1;connectable=0;" parent="1" vertex="1">
          <mxGeometry x="110" y="70" width="560" height="290" as="geometry" />
        </mxCell>
        <mxCell id="_Fy6bXsCZvbTVDBgMAH1-10" value="" style="html=1;strokeColor=none;resizeWidth=1;resizeHeight=1;fillColor=none;part=1;connectable=0;allowArrows=0;deletable=0;whiteSpace=wrap;" parent="_Fy6bXsCZvbTVDBgMAH1-9" vertex="1">
          <mxGeometry width="560" height="203" relative="1" as="geometry">
            <mxPoint y="30" as="offset" />
          </mxGeometry>
        </mxCell>
        <mxCell id="_Fy6bXsCZvbTVDBgMAH1-11" value="Electric Bike Computer&amp;nbsp; - Subsystems" style="html=1;whiteSpace=wrap;" parent="_Fy6bXsCZvbTVDBgMAH1-9" vertex="1">
          <mxGeometry x="210" y="70" width="90" height="45.36" as="geometry" />
        </mxCell>
        <mxCell id="KjauDaig___Rn9YL6-L1-5" style="edgeStyle=orthogonalEdgeStyle;rounded=0;orthogonalLoop=1;jettySize=auto;html=1;exitX=0.5;exitY=0;exitDx=0;exitDy=0;entryX=0.5;entryY=1;entryDx=0;entryDy=0;" edge="1" parent="1" source="_Fy6bXsCZvbTVDBgMAH1-16" target="_Fy6bXsCZvbTVDBgMAH1-11">
          <mxGeometry relative="1" as="geometry" />
        </mxCell>
        <mxCell id="_Fy6bXsCZvbTVDBgMAH1-16" value="Compute Model" style="html=1;whiteSpace=wrap;" parent="1" vertex="1">
          <mxGeometry x="398" y="245" width="110" height="50" as="geometry" />
        </mxCell>
        <mxCell id="KjauDaig___Rn9YL6-L1-2" style="edgeStyle=orthogonalEdgeStyle;rounded=0;orthogonalLoop=1;jettySize=auto;html=1;entryX=0.5;entryY=1;entryDx=0;entryDy=0;" edge="1" parent="1" source="_Fy6bXsCZvbTVDBgMAH1-17" target="_Fy6bXsCZvbTVDBgMAH1-11">
          <mxGeometry relative="1" as="geometry" />
        </mxCell>
        <mxCell id="_Fy6bXsCZvbTVDBgMAH1-17" value="Camera" style="html=1;whiteSpace=wrap;" parent="1" vertex="1">
          <mxGeometry x="278" y="245" width="110" height="50" as="geometry" />
        </mxCell>
        <mxCell id="KjauDaig___Rn9YL6-L1-1" style="edgeStyle=orthogonalEdgeStyle;rounded=0;orthogonalLoop=1;jettySize=auto;html=1;exitX=0.5;exitY=0;exitDx=0;exitDy=0;entryX=0.5;entryY=1;entryDx=0;entryDy=0;" edge="1" parent="1" source="_Fy6bXsCZvbTVDBgMAH1-18" target="_Fy6bXsCZvbTVDBgMAH1-11">
          <mxGeometry relative="1" as="geometry" />
        </mxCell>
        <mxCell id="_Fy6bXsCZvbTVDBgMAH1-18" value="Power Supply" style="html=1;whiteSpace=wrap;" parent="1" vertex="1">
          <mxGeometry x="148" y="245" width="110" height="50" as="geometry" />
        </mxCell>
        <mxCell id="_Fy6bXsCZvbTVDBgMAH1-19" value="Packaging" style="html=1;whiteSpace=wrap;" parent="1" vertex="1">
          <mxGeometry x="528" y="245" width="110" height="50" as="geometry" />
        </mxCell>
        <mxCell id="KjauDaig___Rn9YL6-L1-8" style="edgeStyle=orthogonalEdgeStyle;rounded=0;orthogonalLoop=1;jettySize=auto;html=1;entryX=0.5;entryY=1;entryDx=0;entryDy=0;" edge="1" parent="1">
          <mxGeometry relative="1" as="geometry">
            <mxPoint x="583" y="244.82" as="sourcePoint" />
            <mxPoint x="365" y="184.82" as="targetPoint" />
            <Array as="points">
              <mxPoint x="583" y="215" />
              <mxPoint x="365" y="215" />
            </Array>
          </mxGeometry>
        </mxCell>
      </root>
    </mxGraphModel>
  </diagram>
</mxfile>
